solid icosahedron
  facet normal -0.577350 0.577350 0.577350
    outer loop
      vertex -10.000000 16.180340 0.000000
      vertex -16.180340 0.000000 10.000000
      vertex 0.000000 10.000000 16.180340
    endloop
  endfacet
  facet normal 0.000000 0.934172 0.356822
    outer loop
      vertex -10.000000 16.180340 0.000000
      vertex 0.000000 10.000000 16.180340
      vertex 10.000000 16.180340 0.000000
    endloop
  endfacet
  facet normal 0.000000 0.934172 -0.356822
    outer loop
      vertex -10.000000 16.180340 0.000000
      vertex 10.000000 16.180340 0.000000
      vertex 0.000000 10.000000 -16.180340
    endloop
  endfacet
  facet normal -0.577350 0.577350 -0.577350
    outer loop
      vertex -10.000000 16.180340 0.000000
      vertex 0.000000 10.000000 -16.180340
      vertex -16.180340 0.000000 -10.000000
    endloop
  endfacet
  facet normal -0.934172 0.356822 0.000000
    outer loop
      vertex -10.000000 16.180340 0.000000
      vertex -16.180340 0.000000 -10.000000
      vertex -16.180340 0.000000 10.000000
    endloop
  endfacet
  facet normal 0.577350 0.577350 0.577350
    outer loop
      vertex 10.000000 16.180340 0.000000
      vertex 0.000000 10.000000 16.180340
      vertex 16.180340 0.000000 10.000000
    endloop
  endfacet
  facet normal -0.356822 0.000000 0.934172
    outer loop
      vertex 0.000000 10.000000 16.180340
      vertex -16.180340 0.000000 10.000000
      vertex 0.000000 -10.000000 16.180340
    endloop
  endfacet
  facet normal -0.934172 -0.356822 0.000000
    outer loop
      vertex -16.180340 0.000000 10.000000
      vertex -16.180340 0.000000 -10.000000
      vertex -10.000000 -16.180340 0.000000
    endloop
  endfacet
  facet normal -0.356822 0.000000 -0.934172
    outer loop
      vertex -16.180340 0.000000 -10.000000
      vertex 0.000000 10.000000 -16.180340
      vertex 0.000000 -10.000000 -16.180340
    endloop
  endfacet
  facet normal 0.577350 0.577350 -0.577350
    outer loop
      vertex 0.000000 10.000000 -16.180340
      vertex 10.000000 16.180340 0.000000
      vertex 16.180340 0.000000 -10.000000
    endloop
  endfacet
  facet normal 0.577350 -0.577350 0.577350
    outer loop
      vertex 10.000000 -16.180340 0.000000
      vertex 16.180340 0.000000 10.000000
      vertex 0.000000 -10.000000 16.180340
    endloop
  endfacet
  facet normal 0.000000 -0.934172 0.356822
    outer loop
      vertex 10.000000 -16.180340 0.000000
      vertex 0.000000 -10.000000 16.180340
      vertex -10.000000 -16.180340 0.000000
    endloop
  endfacet
  facet normal 0.000000 -0.934172 -0.356822
    outer loop
      vertex 10.000000 -16.180340 0.000000
      vertex -10.000000 -16.180340 0.000000
      vertex 0.000000 -10.000000 -16.180340
    endloop
  endfacet
  facet normal 0.577350 -0.577350 -0.577350
    outer loop
      vertex 10.000000 -16.180340 0.000000
      vertex 0.000000 -10.000000 -16.180340
      vertex 16.180340 0.000000 -10.000000
    endloop
  endfacet
  facet normal 0.934172 -0.356822 0.000000
    outer loop
      vertex 10.000000 -16.180340 0.000000
      vertex 16.180340 0.000000 -10.000000
      vertex 16.180340 0.000000 10.000000
    endloop
  endfacet
  facet normal 0.356822 0.000000 0.934172
    outer loop
      vertex 0.000000 -10.000000 16.180340
      vertex 16.180340 0.000000 10.000000
      vertex 0.000000 10.000000 16.180340
    endloop
  endfacet
  facet normal -0.577350 -0.577350 0.577350
    outer loop
      vertex -10.000000 -16.180340 0.000000
      vertex 0.000000 -10.000000 16.180340
      vertex -16.180340 0.000000 10.000000
    endloop
  endfacet
  facet normal -0.577350 -0.577350 -0.577350
    outer loop
      vertex 0.000000 -10.000000 -16.180340
      vertex -10.000000 -16.180340 0.000000
      vertex -16.180340 0.000000 -10.000000
    endloop
  endfacet
  facet normal 0.356822 0.000000 -0.934172
    outer loop
      vertex 16.180340 0.000000 -10.000000
      vertex 0.000000 -10.000000 -16.180340
      vertex 0.000000 10.000000 -16.180340
    endloop
  endfacet
  facet normal 0.934172 0.356822 0.000000
    outer loop
      vertex 16.180340 0.000000 10.000000
      vertex 16.180340 0.000000 -10.000000
      vertex 10.000000 16.180340 0.000000
    endloop
  endfacet
endsolid icosahedron
